<?xml version="1.0" encoding="UTF-8" standalone="no"?>
<!-- Created with Inkscape (http://www.inkscape.org/) -->

<svg
   xmlns:dc="http://purl.org/dc/elements/1.1/"
   xmlns:cc="http://creativecommons.org/ns#"
   xmlns:rdf="http://www.w3.org/1999/02/22-rdf-syntax-ns#"
   xmlns:svg="http://www.w3.org/2000/svg"
   xmlns="http://www.w3.org/2000/svg"
   xmlns:sodipodi="http://sodipodi.sourceforge.net/DTD/sodipodi-0.dtd"
   xmlns:inkscape="http://www.inkscape.org/namespaces/inkscape"
   width="105.83334mm"
   height="28.310417mm"
   viewBox="0 0 105.83334 28.310417"
   version="1.1"
   id="svg1890"
   inkscape:version="0.92.1 r15371"
   sodipodi:docname="Logo Eurométropole Strasbourg.svg">
  <defs
     id="defs1884">
    <clipPath
       clipPathUnits="userSpaceOnUse"
       id="clipPath26">
      <path
         d="M 0,0 H 419.528 V 595.276 H 0 Z"
         id="path24"
         inkscape:connector-curvature="0" />
    </clipPath>
    <clipPath
       clipPathUnits="userSpaceOnUse"
       id="clipPath34">
      <path
         d="M -420.528,604.78 H 429.031 V 534.748 H -420.528 Z"
         id="path32"
         inkscape:connector-curvature="0" />
    </clipPath>
    <clipPath
       clipPathUnits="userSpaceOnUse"
       id="clipPath38">
      <path
         d="m -419.528,535.764 h 847.36 v 68.016 h -847.36 z"
         id="path36"
         inkscape:connector-curvature="0" />
    </clipPath>
    <clipPath
       clipPathUnits="userSpaceOnUse"
       id="clipPath42">
      <path
         d="M 318.82,603.912 H 428.733 V 503.586 H 318.82 Z"
         id="path40"
         inkscape:connector-curvature="0" />
    </clipPath>
    <clipPath
       clipPathUnits="userSpaceOnUse"
       id="clipPath46">
      <path
         d="m -419.528,603.779 v -68.015 h 761.559 86 l -0.199,68.015 z"
         id="path44"
         inkscape:connector-curvature="0" />
    </clipPath>
    <clipPath
       clipPathUnits="userSpaceOnUse"
       id="clipPath50">
      <path
         d="M -587.501,1207.52 H 636.714 V -27.0933 H -587.501 Z"
         id="path48"
         inkscape:connector-curvature="0" />
    </clipPath>
    <clipPath
       clipPathUnits="userSpaceOnUse"
       id="clipPath606">
      <path
         d="m 152.161,575.384 h 31.233 v -14.838 h -31.233 z"
         id="path604"
         inkscape:connector-curvature="0" />
    </clipPath>
    <clipPath
       clipPathUnits="userSpaceOnUse"
       id="clipPath610">
      <path
         d="m 153.161,561.547 h 29.233 v 12.837 h -29.233 z"
         id="path608"
         inkscape:connector-curvature="0" />
    </clipPath>
  </defs>
  <sodipodi:namedview
     id="base"
     pagecolor="#ffffff"
     bordercolor="#666666"
     borderopacity="1.0"
     inkscape:pageopacity="0.0"
     inkscape:pageshadow="2"
     inkscape:zoom="0.93707547"
     inkscape:cx="198.15923"
     inkscape:cy="99.795445"
     inkscape:document-units="mm"
     inkscape:current-layer="layer1"
     showgrid="false"
     showguides="true"
     inkscape:guide-bbox="true"
     fit-margin-top="0"
     fit-margin-left="0"
     fit-margin-right="0"
     fit-margin-bottom="0"
     inkscape:window-width="1920"
     inkscape:window-height="1023"
     inkscape:window-x="1920"
     inkscape:window-y="0"
     inkscape:window-maximized="1" />
  <metadata
     id="metadata1887">
    <rdf:RDF>
      <cc:Work
         rdf:about="">
        <dc:format>image/svg+xml</dc:format>
        <dc:type
           rdf:resource="http://purl.org/dc/dcmitype/StillImage" />
        <dc:title></dc:title>
      </cc:Work>
    </rdf:RDF>
  </metadata>
  <g
     inkscape:label="Calque 1"
     inkscape:groupmode="layer"
     id="layer1"
     transform="translate(-50.799046,-40.517834)">
    <rect
       style="fill:#97bf0b;fill-opacity:1;stroke:none;stroke-width:0.03691575"
       id="rect6981"
       width="105.83334"
       height="28.310417"
       x="50.799046"
       y="40.517834" />
    <g
       transform="matrix(0.61381018,0,0,-0.61381018,38.660424,403.29692)"
       id="g20">
      <g
         id="g22"
         clip-path="url(#clipPath26)">
        <g
           id="g28">
          <g
             id="g30" />
        </g>
        <g
           id="g560"
           transform="translate(39.5248,576.0153)">
          <path
             d="m 0,0 c -0.686,0.967 -1.906,1.425 -3.152,1.425 -1.475,0 -2.952,-0.661 -2.952,-2.314 0,-3.612 8.548,-1.553 8.548,-7.962 0,-3.867 -3.053,-5.748 -6.588,-5.748 -2.239,0 -4.426,0.686 -5.9,2.442 l 2.415,2.339 c 0.788,-1.196 2.138,-1.882 3.561,-1.882 1.473,0 3.154,0.815 3.154,2.468 0,3.94 -8.545,1.679 -8.545,8.112 0,3.715 3.306,5.444 6.638,5.444 1.881,0 3.763,-0.536 5.162,-1.856 z"
             style="fill:#ffffff;fill-opacity:1;fill-rule:nonzero;stroke:none"
             id="path562"
             inkscape:connector-curvature="0" />
        </g>
        <g
           id="g564"
           transform="translate(42.0085,571.4879)">
          <path
             d="M 0,0 V 2.595 H 2.519 V 6.698 H 5.57 V 2.595 H 8.928 V 0 H 5.57 v -5.341 c 0,-1.22 0.356,-1.984 1.705,-1.984 0.535,0 1.272,0.102 1.653,0.381 V -9.512 C 8.292,-9.817 7.225,-9.917 6.512,-9.917 c -3.231,0 -3.993,1.45 -3.993,4.321 V 0 Z"
             style="fill:#ffffff;fill-opacity:1;fill-rule:nonzero;stroke:none"
             id="path566"
             inkscape:connector-curvature="0" />
        </g>
        <g
           id="g568"
           transform="translate(52.693,574.083)">
          <path
             d="m 0,0 h 3.052 v -1.933 h 0.051 c 0.66,1.399 2.01,2.238 3.612,2.238 0.381,0 0.738,-0.076 1.093,-0.179 v -2.95 C 7.3,-2.696 6.816,-2.595 6.333,-2.595 3.459,-2.595 3.052,-5.011 3.052,-5.673 V -12.21 H 0 Z"
             style="fill:#ffffff;fill-opacity:1;fill-rule:nonzero;stroke:none"
             id="path570"
             inkscape:connector-curvature="0" />
        </g>
        <g
           id="g572"
           transform="translate(72.5605,564.1144)">
          <path
             d="m 0,0 c 0,-0.865 0.14,-1.394 0.64,-1.394 0.669,0 0.975,0.836 0.975,1.561 h 0.501 c 0,-1.646 -1.169,-2.731 -2.982,-2.731 -1.252,0 -2.283,0.586 -2.784,1.755 -0.725,-1.338 -2.648,-1.755 -3.734,-1.755 -2.146,0 -4.318,0.975 -4.318,3.399 0,2.897 2.758,3.565 5.292,3.759 l 2.731,0.225 v 2.339 c 0,1.673 -0.278,2.704 -2.367,2.704 -0.948,0 -2.564,-0.223 -2.537,-0.835 0.029,-0.475 1.422,-0.391 1.422,-1.728 0,-0.977 -0.64,-1.672 -1.699,-1.672 -1.255,0 -1.813,0.835 -1.813,1.811 0,1.561 2.036,2.926 4.821,2.926 C -2.981,10.364 0,9.583 0,6.406 Z M -3.679,4.318 -5.878,4.095 c -1.812,-0.194 -1.98,-1.17 -1.98,-2.647 0,-1.448 0.084,-3.176 1.98,-3.176 1.308,0 2.144,1.337 2.199,2.814 z"
             style="fill:#ffffff;fill-opacity:1;fill-rule:nonzero;stroke:none"
             id="path574"
             inkscape:connector-curvature="0" />
        </g>
        <g
           id="g576"
           transform="translate(83.1746,570.6993)">
          <path
             d="m 0,0 c -0.585,0.815 -1.349,1.247 -2.391,1.247 -0.814,0 -1.781,-0.382 -1.781,-1.297 0,-2.187 6.588,-0.407 6.588,-5.162 0,-2.899 -2.773,-3.917 -5.265,-3.917 -1.884,0 -3.511,0.482 -4.756,1.882 l 2.034,1.906 c 0.789,-0.864 1.603,-1.501 2.9,-1.501 0.89,0 2.035,0.434 2.035,1.401 0,2.518 -6.587,0.533 -6.587,5.186 0,2.722 2.441,3.944 4.907,3.944 1.628,0 3.359,-0.51 4.351,-1.857 z"
             style="fill:#ffffff;fill-opacity:1;fill-rule:nonzero;stroke:none"
             id="path578"
             inkscape:connector-curvature="0" />
        </g>
        <g
           id="g580"
           transform="translate(87.1922,581.1024)">
          <path
             d="m 0,0 h 3.051 v -8.571 h 0.077 c 0.636,0.787 1.856,1.856 4.146,1.856 3.484,0 5.899,-2.797 5.899,-6.409 0,-3.611 -2.261,-6.408 -6.026,-6.408 -1.706,0 -3.307,0.661 -4.199,2.137 H 2.899 v -1.834 H 0 Z m 6.534,-9.462 c -2.235,0 -3.586,-1.756 -3.586,-3.662 0,-1.908 1.351,-3.663 3.586,-3.663 2.24,0 3.588,1.755 3.588,3.663 0,1.906 -1.348,3.662 -3.588,3.662"
             style="fill:#ffffff;fill-opacity:1;fill-rule:nonzero;stroke:none"
             id="path582"
             inkscape:connector-curvature="0" />
        </g>
        <g
           id="g584"
           transform="translate(108.6095,574.388)">
          <path
             d="m 0,0 c 3.687,0 6.638,-2.569 6.638,-6.411 0,-3.838 -2.951,-6.406 -6.638,-6.406 -3.688,0 -6.639,2.568 -6.639,6.406 C -6.639,-2.569 -3.688,0 0,0 m 0,-10.073 c 2.238,0 3.585,1.755 3.585,3.662 0,1.907 -1.347,3.664 -3.585,3.664 -2.239,0 -3.585,-1.757 -3.585,-3.664 0,-1.907 1.346,-3.662 3.585,-3.662"
             style="fill:#ffffff;fill-opacity:1;fill-rule:nonzero;stroke:none"
             id="path586"
             inkscape:connector-curvature="0" />
        </g>
        <g
           id="g588"
           transform="translate(128.097,561.8734)">
          <path
             d="M 0,0 H -2.898 V 1.96 H -2.95 c -0.56,-1.219 -1.705,-2.263 -3.739,-2.263 -3.281,0 -4.45,2.313 -4.45,4.805 v 7.708 h 3.051 V 6.029 c 0,-1.349 0.101,-3.587 2.238,-3.587 2.009,0 2.798,1.476 2.798,3.104 V 12.21 H 0 Z"
             style="fill:#ffffff;fill-opacity:1;fill-rule:nonzero;stroke:none"
             id="path590"
             inkscape:connector-curvature="0" />
        </g>
        <g
           id="g592"
           transform="translate(130.157,574.083)">
          <path
             d="m 0,0 h 3.051 v -1.933 h 0.052 c 0.661,1.399 2.011,2.238 3.613,2.238 0.38,0 0.737,-0.076 1.093,-0.179 v -2.95 c -0.508,0.128 -0.993,0.229 -1.474,0.229 -2.874,0 -3.284,-2.416 -3.284,-3.078 V -12.21 H 0 Z"
             style="fill:#ffffff;fill-opacity:1;fill-rule:nonzero;stroke:none"
             id="path594"
             inkscape:connector-curvature="0" />
        </g>
        <g
           id="g596"
           transform="translate(146.888,563.358)">
          <path
             d="m 0,0 c 3.1,0.066 4.62,-1.326 4.62,-4.394 0,-3.861 -2.881,-6.835 -7.276,-6.835 -3.512,0 -6.265,1.802 -6.265,4.144 0,1.519 1.456,2.783 2.721,3.132 v 0.063 c -1.328,0.381 -2.057,1.583 -2.057,3.164 0,2.626 1.93,3.478 3.164,3.637 v 0.062 c -1.676,0.761 -2.625,2.121 -2.625,3.859 0,2.88 2.846,4.619 5.504,4.619 1.771,0 3.036,-0.475 3.953,-1.137 0.602,0.696 1.391,1.39 2.436,1.39 0.95,0 2.152,-0.57 2.152,-1.675 0,-0.855 -0.569,-1.614 -1.582,-1.614 -0.95,0 -1.455,0.727 -1.455,1.455 0,0.632 0.191,1.044 0.854,1.391 v 0.064 C 2.911,11.166 2.625,10.471 2.056,9.902 2.942,9.142 3.418,7.719 3.418,6.707 c 0,-3.005 -2.911,-4.554 -5.632,-4.554 -0.506,0 -0.917,0.062 -1.298,0.189 -0.348,0.094 -0.694,0.19 -1.044,0.19 -1.201,0 -2.562,-0.855 -2.562,-1.645 C -7.118,0.032 -6.043,0 -5.251,0 Z m -5.693,-3.985 c -0.855,-0.915 -1.33,-1.834 -1.33,-3.227 0.063,-1.517 1.613,-3.447 4.461,-3.447 3.195,0 6.043,2.151 6.043,4.461 0,1.93 -1.045,2.213 -4.21,2.213 z M -0.19,6.832 c -0.033,3.639 -0.507,4.05 -1.991,4.05 -1.647,0 -1.931,-1.391 -1.931,-3.954 0,-3.796 0.664,-4.208 1.931,-4.208 1.137,0 1.958,0.223 1.991,4.112"
             style="fill:#ffffff;fill-opacity:1;fill-rule:nonzero;stroke:none"
             id="path598"
             inkscape:connector-curvature="0" />
        </g>
        <g
           id="g600">
          <g
             id="g602" />
          <g
             id="g622">
            <g
               clip-path="url(#clipPath606)"
               id="g620"
               style="opacity:0.5">
              <g
                 id="g618">
                <g
                   clip-path="url(#clipPath610)"
                   id="g616">
                  <g
                     transform="translate(163.9871,574.384)"
                     id="g614">
                    <path
                       d="m 0,0 c -3.603,0 -6.262,-2.634 -6.262,-6.419 0,-3.551 2.345,-6.418 6.186,-6.418 2.271,0 3.992,0.678 5.426,2.527 l -1.538,1.202 c -0.964,-1.226 -2.14,-1.854 -3.888,-1.854 -2.221,0 -3.841,1.802 -3.996,3.916 h 9.865 v 0.653 C 5.793,-2.347 3.447,0 0,0 m -4.072,-5.326 c 0.26,2.065 1.749,3.45 3.996,3.45 2.244,0 3.603,-1.385 3.68,-3.45 z m 22.374,5.013 h -2.033 v -5.952 c 0,-2.792 -1.149,-4.697 -3.786,-4.697 -1.907,0 -2.796,1.28 -2.796,3.315 v 7.334 H 7.655 v -7.545 c 0,-2.947 1.432,-4.979 4.645,-4.979 2.01,0 3.525,1.12 4.073,2.319 h 0.052 c 0,-0.678 0.052,-1.356 0.052,-2.007 h 1.93 c 0,0.808 -0.105,1.772 -0.105,2.896 z m -27.565,-9.24 c -0.861,0 -1.564,-0.704 -1.564,-1.563 0,-0.86 0.755,-1.565 1.564,-1.565 0.809,0 1.564,0.705 1.564,1.565 0,0.859 -0.704,1.563 -1.564,1.563"
                       style="fill:#ffffff;fill-opacity:1;fill-rule:nonzero;stroke:none"
                       id="path612"
                       inkscape:connector-curvature="0" />
                  </g>
                </g>
              </g>
            </g>
          </g>
        </g>
        <g
           id="g624"
           transform="translate(130.3783,556.2869)">
          <path
             d="M 0,0 C 0.006,0.117 0.034,0.228 0.083,0.335 0.131,0.442 0.199,0.536 0.286,0.617 0.374,0.698 0.479,0.764 0.602,0.816 0.725,0.868 0.868,0.894 1.029,0.894 1.295,0.894 1.512,0.806 1.68,0.632 1.849,0.456 1.93,0.246 1.923,0 Z M 2.136,-1.331 C 2.014,-1.499 1.869,-1.637 1.704,-1.743 1.539,-1.85 1.337,-1.904 1.097,-1.904 0.813,-1.904 0.573,-1.821 0.379,-1.656 0.184,-1.491 0.058,-1.269 0,-0.991 h 3.38 v 0.457 c 0,0.376 -0.052,0.716 -0.156,1.02 C 3.121,0.79 2.973,1.051 2.782,1.267 2.591,1.484 2.359,1.651 2.083,1.768 1.808,1.884 1.502,1.943 1.165,1.943 0.803,1.943 0.461,1.884 0.14,1.768 -0.18,1.651 -0.459,1.484 -0.695,1.267 -0.931,1.051 -1.117,0.79 -1.253,0.486 c -0.136,-0.304 -0.204,-0.644 -0.204,-1.02 0,-0.376 0.068,-0.716 0.204,-1.02 0.136,-0.305 0.322,-0.565 0.558,-0.782 0.236,-0.217 0.515,-0.384 0.835,-0.5 0.321,-0.116 0.663,-0.175 1.025,-0.175 0.383,0 0.752,0.081 1.108,0.243 0.356,0.162 0.651,0.392 0.883,0.689 z m -5.877,-1.563 h 1.457 V 4.053 H -3.741 Z M -8.034,0.33 c 0.204,0.221 0.491,0.331 0.86,0.331 0.369,0 0.656,-0.11 0.86,-0.331 0.204,-0.22 0.306,-0.508 0.306,-0.864 0,-0.356 -0.102,-0.644 -0.306,-0.865 -0.204,-0.219 -0.491,-0.33 -0.86,-0.33 -0.369,0 -0.656,0.111 -0.86,0.33 -0.203,0.221 -0.306,0.509 -0.306,0.865 0,0.356 0.103,0.644 0.306,0.864 m -1.558,-1.884 c 0.135,-0.305 0.322,-0.565 0.558,-0.782 0.237,-0.217 0.515,-0.384 0.836,-0.5 0.32,-0.116 0.661,-0.175 1.024,-0.175 0.363,0 0.704,0.059 1.025,0.175 0.321,0.116 0.599,0.283 0.835,0.5 0.236,0.217 0.423,0.477 0.559,0.782 0.136,0.304 0.204,0.644 0.204,1.02 0,0.376 -0.068,0.716 -0.204,1.02 C -4.891,0.79 -5.078,1.051 -5.314,1.267 -5.55,1.484 -5.828,1.651 -6.149,1.768 -6.47,1.884 -6.811,1.943 -7.174,1.943 -7.537,1.943 -7.878,1.884 -8.198,1.768 -8.519,1.651 -8.797,1.484 -9.034,1.267 -9.27,1.051 -9.457,0.79 -9.592,0.486 c -0.137,-0.304 -0.205,-0.644 -0.205,-1.02 0,-0.376 0.068,-0.716 0.205,-1.02 m -4.269,1.884 c 0.204,0.221 0.491,0.331 0.86,0.331 0.369,0 0.655,-0.11 0.859,-0.331 0.204,-0.22 0.306,-0.508 0.306,-0.864 0,-0.356 -0.102,-0.644 -0.306,-0.865 -0.204,-0.219 -0.49,-0.33 -0.859,-0.33 -0.369,0 -0.656,0.111 -0.86,0.33 -0.204,0.221 -0.306,0.509 -0.306,0.865 0,0.356 0.102,0.644 0.306,0.864 m -1.646,-5.439 h 1.457 v 2.72 h 0.019 c 0.169,-0.227 0.384,-0.387 0.646,-0.481 0.262,-0.094 0.545,-0.141 0.85,-0.141 0.336,0 0.637,0.07 0.903,0.209 0.266,0.139 0.491,0.326 0.675,0.558 0.185,0.233 0.327,0.501 0.428,0.802 0.1,0.301 0.15,0.617 0.15,0.947 0,0.356 -0.055,0.683 -0.165,0.981 -0.111,0.298 -0.267,0.555 -0.471,0.772 -0.204,0.217 -0.449,0.385 -0.733,0.505 -0.286,0.12 -0.603,0.18 -0.952,0.18 -0.169,0 -0.327,-0.023 -0.476,-0.069 -0.149,-0.045 -0.287,-0.103 -0.413,-0.174 -0.126,-0.072 -0.237,-0.151 -0.33,-0.239 -0.094,-0.087 -0.17,-0.173 -0.229,-0.256 h -0.019 v 0.621 h -1.34 z M -19.85,0.33 c 0.204,0.221 0.491,0.331 0.86,0.331 0.369,0 0.655,-0.11 0.859,-0.331 0.204,-0.22 0.306,-0.508 0.306,-0.864 0,-0.356 -0.102,-0.644 -0.306,-0.865 -0.204,-0.219 -0.49,-0.33 -0.859,-0.33 -0.369,0 -0.656,0.111 -0.86,0.33 -0.204,0.221 -0.306,0.509 -0.306,0.865 0,0.356 0.102,0.644 0.306,0.864 m -1.559,-1.884 c 0.136,-0.305 0.322,-0.565 0.559,-0.782 0.236,-0.217 0.515,-0.384 0.835,-0.5 0.321,-0.116 0.662,-0.175 1.025,-0.175 0.363,0 0.705,0.059 1.024,0.175 0.321,0.116 0.599,0.283 0.836,0.5 0.236,0.217 0.422,0.477 0.558,0.782 0.136,0.304 0.204,0.644 0.204,1.02 0,0.376 -0.068,0.716 -0.204,1.02 -0.136,0.304 -0.322,0.565 -0.558,0.781 -0.237,0.217 -0.515,0.384 -0.836,0.501 -0.319,0.116 -0.661,0.175 -1.024,0.175 -0.363,0 -0.704,-0.059 -1.025,-0.175 -0.32,-0.117 -0.599,-0.284 -0.835,-0.501 -0.237,-0.216 -0.423,-0.477 -0.559,-0.781 -0.136,-0.304 -0.204,-0.644 -0.204,-1.02 0,-0.376 0.068,-0.716 0.204,-1.02 m -3.891,-1.34 h 1.458 v 1.971 c 0,0.233 0.012,0.447 0.038,0.641 0.026,0.194 0.083,0.361 0.17,0.5 0.087,0.14 0.212,0.248 0.374,0.326 0.162,0.078 0.382,0.117 0.661,0.117 0.11,0 0.215,-0.008 0.315,-0.025 0.101,-0.016 0.203,-0.04 0.306,-0.073 v 1.331 c -0.071,0.019 -0.148,0.032 -0.233,0.039 -0.084,0.006 -0.168,0.01 -0.252,0.01 -0.324,0 -0.593,-0.073 -0.807,-0.219 -0.213,-0.145 -0.398,-0.365 -0.553,-0.655 h -0.019 V 1.826 H -25.3 Z m -0.813,4.72 h -1.283 v 1.399 h -1.457 V 1.826 h -0.932 V 0.661 h 0.932 v -2.244 c 0,-0.259 0.044,-0.48 0.132,-0.661 0.087,-0.181 0.208,-0.329 0.364,-0.442 0.155,-0.113 0.337,-0.195 0.544,-0.248 0.207,-0.051 0.433,-0.077 0.679,-0.077 0.169,0 0.34,0.01 0.515,0.029 0.175,0.02 0.343,0.058 0.506,0.117 v 1.214 c -0.065,-0.058 -0.161,-0.096 -0.287,-0.112 -0.126,-0.016 -0.228,-0.024 -0.306,-0.024 -0.155,0 -0.28,0.021 -0.374,0.063 -0.094,0.042 -0.164,0.102 -0.208,0.18 -0.046,0.077 -0.075,0.169 -0.088,0.277 -0.013,0.106 -0.02,0.225 -0.02,0.354 v 1.574 h 1.283 z M -33.521,0 c 0.007,0.117 0.034,0.228 0.083,0.335 0.049,0.107 0.117,0.201 0.204,0.282 0.087,0.081 0.193,0.147 0.316,0.199 0.123,0.052 0.265,0.078 0.427,0.078 0.266,0 0.483,-0.088 0.651,-0.262 0.168,-0.176 0.249,-0.386 0.243,-0.632 z m 2.137,-1.331 c -0.123,-0.168 -0.267,-0.306 -0.432,-0.412 -0.165,-0.107 -0.367,-0.161 -0.607,-0.161 -0.285,0 -0.524,0.083 -0.719,0.248 -0.194,0.165 -0.32,0.387 -0.379,0.665 h 3.38 v 0.457 c 0,0.376 -0.051,0.716 -0.154,1.02 -0.105,0.304 -0.252,0.565 -0.442,0.781 -0.191,0.217 -0.425,0.384 -0.7,0.501 -0.275,0.116 -0.581,0.175 -0.918,0.175 -0.363,0 -0.704,-0.059 -1.024,-0.175 -0.321,-0.117 -0.599,-0.284 -0.836,-0.501 -0.236,-0.216 -0.423,-0.477 -0.559,-0.781 -0.135,-0.304 -0.204,-0.644 -0.204,-1.02 0,-0.376 0.069,-0.716 0.204,-1.02 0.136,-0.305 0.323,-0.565 0.559,-0.782 0.237,-0.217 0.515,-0.384 0.836,-0.5 0.32,-0.116 0.661,-0.175 1.024,-0.175 0.382,0 0.751,0.081 1.107,0.243 0.357,0.162 0.651,0.392 0.884,0.689 z m -11.803,-1.563 h 1.457 v 2.35 c 0,0.156 0.01,0.305 0.03,0.447 0.019,0.142 0.059,0.27 0.121,0.383 0.062,0.114 0.151,0.204 0.267,0.273 0.117,0.068 0.269,0.102 0.456,0.102 0.169,0 0.297,-0.039 0.384,-0.117 0.088,-0.078 0.151,-0.172 0.19,-0.282 0.039,-0.11 0.061,-0.226 0.068,-0.35 0.006,-0.123 0.009,-0.226 0.009,-0.31 v -2.496 h 1.457 v 2.496 c 0,0.142 0.015,0.278 0.044,0.408 0.029,0.129 0.078,0.242 0.146,0.339 0.068,0.098 0.158,0.174 0.272,0.229 0.113,0.055 0.254,0.083 0.422,0.083 0.24,0 0.406,-0.08 0.501,-0.239 0.093,-0.159 0.14,-0.348 0.14,-0.568 v -2.748 h 1.457 v 2.787 c 0,0.285 -0.028,0.552 -0.082,0.802 -0.055,0.248 -0.146,0.466 -0.272,0.65 -0.127,0.184 -0.298,0.33 -0.515,0.437 -0.217,0.107 -0.484,0.161 -0.802,0.161 -0.349,0 -0.644,-0.065 -0.883,-0.194 -0.24,-0.13 -0.444,-0.347 -0.612,-0.652 -0.13,0.292 -0.322,0.506 -0.578,0.642 -0.256,0.135 -0.549,0.204 -0.879,0.204 -0.175,0 -0.337,-0.023 -0.486,-0.069 C -41.024,1.829 -41.156,1.771 -41.273,1.7 -41.39,1.628 -41.49,1.547 -41.574,1.457 -41.658,1.366 -41.723,1.276 -41.768,1.185 h -0.02 v 0.641 h -1.399 z m -0.987,3.224 c -0.12,0.292 -0.287,0.544 -0.5,0.758 -0.214,0.214 -0.468,0.381 -0.763,0.5 -0.295,0.12 -0.62,0.18 -0.976,0.18 -0.35,0 -0.672,-0.06 -0.966,-0.18 -0.295,-0.119 -0.549,-0.286 -0.763,-0.5 -0.214,-0.214 -0.38,-0.466 -0.5,-0.758 -0.12,-0.291 -0.18,-0.609 -0.18,-0.952 0,-0.343 0.06,-0.66 0.18,-0.951 0.12,-0.292 0.286,-0.544 0.5,-0.758 0.214,-0.213 0.468,-0.38 0.763,-0.501 0.294,-0.119 0.616,-0.179 0.966,-0.179 0.356,0 0.681,0.06 0.976,0.179 0.295,0.121 0.549,0.288 0.763,0.501 0.213,0.214 0.38,0.466 0.5,0.758 0.12,0.291 0.179,0.608 0.179,0.951 0,0.343 -0.059,0.661 -0.179,0.952 m -0.641,-1.661 c -0.081,-0.22 -0.196,-0.411 -0.345,-0.573 -0.149,-0.162 -0.328,-0.289 -0.539,-0.383 -0.21,-0.094 -0.448,-0.141 -0.714,-0.141 -0.266,0 -0.504,0.047 -0.714,0.141 -0.211,0.094 -0.388,0.221 -0.534,0.383 -0.145,0.162 -0.259,0.353 -0.34,0.573 -0.081,0.22 -0.121,0.457 -0.121,0.709 0,0.253 0.04,0.489 0.121,0.709 0.081,0.22 0.195,0.411 0.34,0.574 0.146,0.161 0.323,0.289 0.534,0.383 0.21,0.094 0.448,0.141 0.714,0.141 0.266,0 0.504,-0.047 0.714,-0.141 0.211,-0.094 0.39,-0.222 0.539,-0.383 0.149,-0.163 0.264,-0.354 0.345,-0.574 0.081,-0.22 0.121,-0.456 0.121,-0.709 0,-0.252 -0.04,-0.489 -0.121,-0.709 m -6.687,-1.563 h 0.641 v 2.564 c 0,0.155 0.028,0.317 0.083,0.485 0.055,0.169 0.141,0.326 0.257,0.472 0.117,0.145 0.263,0.265 0.437,0.359 0.175,0.093 0.385,0.141 0.631,0.141 0.162,0 0.285,-0.017 0.37,-0.049 l 0.126,0.631 c -0.136,0.04 -0.295,0.059 -0.476,0.059 -0.201,0 -0.38,-0.028 -0.539,-0.083 C -50.131,1.63 -50.27,1.558 -50.39,1.467 -50.51,1.376 -50.612,1.274 -50.696,1.161 -50.78,1.048 -50.845,0.929 -50.89,0.806 h -0.02 v 0.845 h -0.631 c 0.006,-0.33 0.015,-0.599 0.024,-0.806 0.01,-0.207 0.015,-0.412 0.015,-0.612 z m -1.11,0 c -0.014,0.168 -0.025,0.346 -0.034,0.534 -0.01,0.188 -0.015,0.343 -0.015,0.466 v 3.545 h -0.641 V -0.68 c 0,-0.414 -0.065,-0.738 -0.194,-0.971 -0.13,-0.234 -0.277,-0.408 -0.442,-0.525 -0.165,-0.116 -0.323,-0.187 -0.471,-0.213 -0.149,-0.026 -0.24,-0.039 -0.272,-0.039 -0.24,0 -0.439,0.034 -0.598,0.102 -0.158,0.068 -0.284,0.168 -0.378,0.301 -0.095,0.132 -0.16,0.296 -0.2,0.491 -0.038,0.194 -0.058,0.417 -0.058,0.67 v 2.515 h -0.641 v -2.884 c 0,-0.571 0.139,-1.009 0.418,-1.317 0.278,-0.307 0.709,-0.461 1.292,-0.461 0.149,0 0.299,0.022 0.452,0.063 0.152,0.043 0.296,0.1 0.432,0.175 0.136,0.074 0.258,0.164 0.368,0.267 0.111,0.104 0.201,0.217 0.273,0.34 h 0.019 c 0,-0.123 0.002,-0.244 0.005,-0.364 0.003,-0.12 0.011,-0.241 0.024,-0.364 z m -4.861,2.098 v 0.291 c 0,0.311 -0.049,0.604 -0.145,0.879 -0.098,0.275 -0.238,0.515 -0.423,0.719 -0.184,0.204 -0.413,0.367 -0.685,0.49 -0.271,0.123 -0.708,0.185 -1.052,0.185 -0.323,0 -0.496,-0.06 -0.774,-0.18 -0.278,-0.119 -0.521,-0.286 -0.728,-0.5 -0.208,-0.214 -0.369,-0.466 -0.486,-0.758 -0.116,-0.291 -0.175,-0.609 -0.175,-0.952 0,-0.343 0.06,-0.66 0.18,-0.951 0.119,-0.292 0.283,-0.544 0.49,-0.758 0.208,-0.213 0.455,-0.38 0.743,-0.501 0.288,-0.119 0.601,-0.179 0.938,-0.179 0.375,0 0.726,0.074 1.054,0.223 0.326,0.149 0.626,0.396 0.898,0.739 l -0.495,0.408 c -0.13,-0.208 -0.319,-0.391 -0.568,-0.549 -0.25,-0.159 -0.546,-0.238 -0.889,-0.238 -0.227,0 -0.437,0.042 -0.632,0.126 -0.194,0.085 -0.365,0.199 -0.514,0.345 -0.149,0.146 -0.269,0.319 -0.36,0.52 -0.09,0.2 -0.145,0.414 -0.165,0.641 z m -3.768,0.524 c 0,0.188 0.044,0.37 0.131,0.544 0.087,0.175 0.204,0.33 0.35,0.466 0.145,0.136 0.315,0.245 0.51,0.326 0.194,0.08 0.394,0.121 0.602,0.121 0.465,0 0.828,-0.134 1.087,-0.403 0.259,-0.269 0.389,-0.62 0.389,-1.054 z"
             style="fill:#ffffff;fill-opacity:1;fill-rule:nonzero;stroke:none"
             id="path626"
             inkscape:connector-curvature="0" />
        </g>
      </g>
    </g>
  </g>
</svg>
