<?xml version="1.0" encoding="UTF-8" standalone="no"?>
<!DOCTYPE svg PUBLIC "-//W3C//DTD SVG 1.1//EN" "http://www.w3.org/Graphics/SVG/1.1/DTD/svg11.dtd">
<svg version="1.1" xmlns="http://www.w3.org/2000/svg" xmlns:xlink="http://www.w3.org/1999/xlink" preserveAspectRatio="xMidYMid meet" viewBox="0 0 640 640" width="640" height="640"><defs><path d="M344.64 164.04C325.31 161.25 299.71 162.27 267.83 167.1C220 174.35 127.25 229.42 102.61 259.86C77.97 290.29 30.14 374.35 77.97 493.19C125.8 612.03 180.5 618.53 206.59 629.05C232.67 639.57 330.14 646.81 382.32 625.07C434.49 603.33 464.93 564.2 488.12 535.22C511.3 506.23 535.41 449.71 533.04 388.84C530.68 327.97 522.14 344.05 524.35 333.77C525.82 326.91 524.85 247.2 521.45 94.64L351.88 4.78L344.64 164.04Z" id="c4djThvY0c"></path><path d="M370.72 82.61L501.16 157.98L501.16 113.05L373.79 43.48L370.72 82.61Z" id="f3NEDl7mxK"></path><path d="M501.16 190.29C503.56 244.45 505 272.2 505.51 273.55C506.01 274.9 500.8 270.24 489.89 259.59C480.94 246.48 470.91 234.93 459.78 224.96C455.24 220.88 428.88 199.5 425.8 197.54C415.17 190.77 394.88 181.06 364.93 168.39L370.72 106.23L501.16 190.29Z" id="aAnpqaf7b"></path><path d="M361.84 256.23C402.37 239.65 422.89 227.53 423.41 219.87C423.92 212.22 404.43 200.86 364.93 185.81L361.84 256.23Z" id="cHtXWuAOd"></path><path d="M199.71 349.71L338.84 271.45L340.29 183.77C304.57 182.38 271.74 186.09 241.79 194.91C211.84 203.72 184.28 217.64 159.13 236.67L199.71 349.71Z" id="fKnWcM3CL"></path><path d="M89.57 320.66C80.1 347.83 76.72 380.71 79.42 419.28L173.62 362.75L136.21 256.23C114.58 272.01 99.03 293.49 89.57 320.66Z" id="j1bBMPMb5M"></path><path d="M336.56 349.71C326.22 339.32 314.4 335.34 301.12 337.75C281.19 341.38 265.42 352.12 260.58 356.96C250.43 367.1 234.49 385.94 237.39 409.13C239.32 424.59 247.05 447.78 260.58 478.7L104.06 504.78C91.58 474.78 85.3 454.97 85.22 445.36C85.13 435.75 170.16 385.99 340.29 296.09L336.56 349.71Z" id="aboHTzCBw"></path><path d="M296.11 545.36L324.35 493.19L370.72 485.94L388.81 600.43C352.6 613 324.35 619.28 304.06 619.28C273.62 619.28 222.9 617.83 182.32 596.09C155.27 581.59 134.01 557.92 118.55 525.07L272.17 500.43L296.11 545.36Z" id="iRnxK8gX4"></path><path d="M501.16 471.45C493.43 487.87 482.8 505.75 469.28 525.07C455.75 544.4 435.94 564.2 409.86 584.49L393.91 481.59L501.16 471.45Z" id="d3GBpRLV5T"></path><path d="M357.68 370C361.6 389.39 361.6 407.17 357.68 423.36C351.8 447.63 333.95 467.36 334.17 467.1C334.32 466.93 391.43 460.17 505.51 446.81C509.37 424.59 511.79 409.13 512.75 400.43C513.72 391.74 512.75 381.59 509.86 370L459.13 441.01C453.2 428.78 445.47 414.24 435.94 397.37C426.41 380.51 419.17 362.69 414.2 343.91C410.34 313.96 413.72 292.22 424.35 278.7C434.98 265.17 446.57 257.68 459.13 256.23L441.74 238.12L364.93 283.04L357.68 370Z" id="aVdp5iBK2"></path><path d="M336.56 405.71C336.56 425.99 320.62 442.45 300.98 442.45C281.35 442.45 265.41 424.08 265.41 405.71C265.41 387.35 281.35 368.98 300.98 368.98C320.62 368.98 336.56 385.44 336.56 405.71Z" id="f3xOGtvDtj"></path><path d="M504.52 321.99C504.52 342.26 488.58 358.72 468.94 358.72C449.31 358.72 433.37 340.35 433.37 321.99C433.37 303.62 449.31 285.25 468.94 285.25C488.58 285.25 504.52 301.71 504.52 321.99Z" id="a1vxHxPccp"></path></defs><g><g><g><use xlink:href="#c4djThvY0c" opacity="1" fill="#000000" fill-opacity="1"></use></g><g><use xlink:href="#f3NEDl7mxK" opacity="1" fill="#ffffff" fill-opacity="1"></use></g><g><use xlink:href="#aAnpqaf7b" opacity="1" fill="#ffffff" fill-opacity="1"></use></g><g><use xlink:href="#cHtXWuAOd" opacity="1" fill="#ffffff" fill-opacity="1"></use></g><g><use xlink:href="#fKnWcM3CL" opacity="1" fill="#ffffff" fill-opacity="1"></use></g><g><use xlink:href="#j1bBMPMb5M" opacity="1" fill="#ffffff" fill-opacity="1"></use></g><g><use xlink:href="#aboHTzCBw" opacity="1" fill="#ffffff" fill-opacity="1"></use></g><g><use xlink:href="#iRnxK8gX4" opacity="1" fill="#ffffff" fill-opacity="1"></use></g><g><use xlink:href="#d3GBpRLV5T" opacity="1" fill="#ffffff" fill-opacity="1"></use></g><g><use xlink:href="#aVdp5iBK2" opacity="1" fill="#ffffff" fill-opacity="1"></use></g><g><use xlink:href="#f3xOGtvDtj" opacity="1" fill="#ffffff" fill-opacity="1"></use></g><g><use xlink:href="#a1vxHxPccp" opacity="1" fill="#ffffff" fill-opacity="1"></use></g></g></g></svg>